PathFileType	4	(X/Y/Z)	D:\MotionData\Pi-Spi Study\20230118_AMCsubject1\Trimmed_right_horiz_abd01_rotated.trc
DataRate	CameraRate	NumFrames	NumMarkers	Units	OrigDataRate	OrigDataStartFrame	OrigNumFrames
200.00	200.00	       8	35	mm	200.00	51	       200
Frame#	Time	C7			Sternum			r_AMC1			r_AMC2			r_AMC3			l_AMC1			l_AMC2			l_AMC3			PX			T8			r_humerous			r_elbow_medial			r_elbow_lateral			r_forearm			r_wrist_radius			r_wrist_ulna			r_MCP_1			r_MCP_3			l_humerous			l_elbow_medial			l_elbow_lateral			l_forearm			l_wrist_radius			l_wrist_ulna			l_MCP_1			l_MCP_3			r_ASIS			r_PSIS			l_ASIS			l_PSIS			r_IC			l_IC			TS			AI			AA			
		X1	Y1	Z1	X2	Y2	Z2	X3	Y3	Z3	X4	Y4	Z4	X5	Y5	Z5	X6	Y6	Z6	X7	Y7	Z7	X8	Y8	Z8	X9	Y9	Z9	X10	Y10	Z10	X11	Y11	Z11	X12	Y12	Z12	X13	Y13	Z13	X14	Y14	Z14	X15	Y15	Z15	X16	Y16	Z16	X17	Y17	Z17	X18	Y18	Z18	X19	Y19	Z19	X20	Y20	Z20	X21	Y21	Z21	X22	Y22	Z22	X23	Y23	Z23	X24	Y24	Z24	X25	Y25	Z25	X26	Y26	Z26	X27	Y27	Z27	X28	Y28	Z28	X29	Y29	Z29	X30	Y30	Z30	X31	Y31	Z31	X32	Y32	Z32	X33	Y33	Z33	X34	Y34	Z34	X35	Y35	Z35	

51	0.25	215.6457	1376.8231	-263.0486	342.4244	1308.9023	-233.2641	173.1303	1363.8523	-137.0979	199.548	1387.5043	-102.093	224.4186	1407.3921	-134.1743	241.9354	1313.5632	-409.6942	279.7281	1300.9767	-441.0067	306.9011	1335.5205	-410.9182	378.0638	1113.0225	-199.7638	156.3425	1199.6927	-253.2169	234.9932	1368.1073	46.5029	201.5627	1282.2988	167.9086	158.24	1323.912	158.7723	114.0843	1340.9484	317.0235	111.2686	1365.8298	389.115	108.3781	1314.0131	386.4164	93.7434	1371.1851	473.6942	97.1589	1323.6999	473.2375	345.4683	1105.3867	-417.3289	263.9716	978.2282	-407.3596	286.0294	974.9391	-458.8498	345.8292	827.029	-472.6438	388.448	757.6482	-445.1256	349.9772	750.6436	-465.9164	404.2967	680.2953	-452.5692	360.9504	676.039	-469.7456	343.0022	906.2053	-62.899	159.0571	929.2499	-155.5152	357.395	889.7925	-324.0488	165.3566	922.9161	-258.8793	259.5076	971.9554	-41.6163	270.6915	937.0685	-366.9592	113.8105	1331.6372	-208.6737	98.3426	1235.9093	-176.9222	129.6725	1367.5204	-69.7304
52	0.255	215.63	1376.8119	-263.0024	342.4401	1308.9122	-233.257	172.9756	1364.0328	-137.0441	199.5737	1387.5147	-102.0883	224.4144	1407.4324	-134.1518	241.7648	1313.4277	-409.901	279.7698	1300.9661	-441.0605	306.7793	1335.5795	-410.683	378.0687	1113.0101	-199.7791	156.3012	1199.6992	-253.1661	234.9973	1368.1117	46.5507	201.7367	1282.4263	167.8796	158.3216	1323.9935	158.7694	114.0571	1340.8999	317.025	111.2443	1365.7628	389.1434	108.3298	1313.9596	386.4246	93.7209	1371.1141	473.6873	97.1455	1323.6311	473.2329	345.4586	1105.3497	-417.3441	263.9078	978.2396	-407.3249	286.0166	974.9637	-458.8788	345.7647	827.1316	-472.6508	388.4038	757.6801	-445.1531	349.9586	750.7244	-465.9803	404.2899	680.3434	-452.6072	360.9289	676.067	-469.7799	343.1035	906.4301	-62.647	159.0472	929.2476	-155.5067	357.3867	889.8118	-324.0268	165.3154	922.9207	-258.868	259.514	971.9596	-41.5898	270.7446	937.024	-366.9769	113.8101	1331.6434	-208.673	98.3684	1235.89	-176.9535	129.6668	1367.5344	-69.7186
53	0.26	215.6343	1376.8313	-263.0041	342.4197	1308.9247	-233.2403	173.1448	1363.89	-137.0766	199.5966	1387.5128	-102.0704	224.521	1407.3156	-134.0965	241.838	1313.6675	-409.596	279.7448	1300.9486	-441.0334	306.8136	1335.6409	-410.8059	378.0917	1113.0106	-199.7446	156.3077	1199.6985	-253.1711	235.0294	1368.1012	46.5545	201.5539	1282.3251	167.961	158.2763	1323.8895	158.7818	114.0683	1340.8633	317.019	111.2584	1365.7211	389.1572	108.33	1313.9052	386.4297	93.7092	1371.0453	473.7019	97.1122	1323.548	473.2387	345.3678	1105.4414	-417.3104	263.9245	978.2521	-407.3298	285.9829	974.9897	-458.8857	345.7047	827.1729	-472.7016	388.3595	757.6808	-445.1989	349.8894	750.7446	-465.9952	404.2527	680.5122	-452.7546	360.8904	676.0983	-469.827	342.9684	906.1914	-62.8617	159.0352	929.2417	-155.4859	357.3412	889.8091	-324.0364	165.3104	922.949	-258.8794	259.4677	971.9416	-41.5994	270.5906	937.1269	-367.0055	113.8131	1331.6372	-208.646	98.369	1235.91	-176.9386	129.6561	1367.5228	-69.7043
54	0.265	215.6352	1376.8203	-262.9695	342.4402	1308.9163	-233.2462	173.1665	1363.8878	-137.0618	199.6362	1387.5126	-102.0348	224.5613	1407.2905	-134.0516	241.9184	1313.5892	-409.6703	279.7599	1300.9899	-441.0663	306.7688	1335.6094	-410.6675	378.0321	1113.0288	-199.7753	156.3338	1199.7117	-253.1549	235.0152	1368.1434	46.559	201.7059	1282.4568	167.9099	158.3528	1323.9707	158.7906	114.0596	1340.8755	317.0437	111.2691	1365.693	389.1667	108.3054	1313.8712	386.4155	93.6963	1370.9801	473.7504	97.0764	1323.4935	473.2353	345.3577	1105.5051	-417.3607	263.8806	978.2525	-407.3503	285.9508	975.0066	-458.91	345.6227	827.2764	-472.7672	388.343	757.7269	-445.2476	349.8734	750.7166	-465.9595	404.2179	680.4543	-452.7614	360.8348	676.1187	-469.861	342.9711	906.2052	-62.8742	159.0427	929.2432	-155.4797	357.3098	889.7994	-324.047	165.2743	922.9426	-258.849	259.4466	971.9674	-41.588	270.5822	937.1114	-366.9701	113.8358	1331.6344	-208.6254	98.3405	1235.8885	-176.9415	129.6453	1367.5286	-69.6783
55	0.27	215.6184	1376.8334	-262.9424	342.4047	1308.9302	-233.2364	173.1889	1363.88	-137.042	199.6342	1387.4967	-102.021	224.6419	1407.2767	-134.0404	241.8298	1313.7747	-409.615	279.7307	1301.0381	-441.0595	306.7176	1335.7357	-410.728	378.0269	1113.0187	-199.7539	156.3115	1199.7097	-253.1387	235.0408	1368.1177	46.6237	201.4937	1282.299	167.9646	158.2976	1323.8838	158.8158	114.0569	1340.8492	317.0386	111.2511	1365.6552	389.1867	108.2751	1313.8386	386.421	93.6952	1370.9153	473.7655	97.0338	1323.4262	473.2126	345.2529	1105.6511	-417.3758	263.8759	978.2613	-407.3527	285.9291	975.0204	-458.9189	345.5826	827.2454	-472.7878	388.335	757.7503	-445.4507	349.6086	751.046	-466.4379	404.269	680.3688	-452.7352	360.7909	676.1711	-469.9077	343.0916	906.434	-62.6409	159.0352	929.2368	-155.4812	357.3385	889.8306	-324.0469	165.2879	922.9285	-258.8406	259.4671	971.946	-41.6038	270.5827	937.0754	-366.9876	113.8124	1331.635	-208.6272	98.3674	1235.8816	-176.9615	129.6509	1367.4967	-69.6295
56	0.275	215.6291	1376.8433	-262.9272	342.4399	1308.9654	-233.2437	173.1923	1363.8909	-137.0208	199.6485	1387.4951	-101.9841	224.6661	1407.2456	-133.9879	241.855	1313.7742	-409.6131	279.7193	1301.0795	-441.0499	306.6528	1335.7084	-410.4919	378.0432	1113.0408	-199.7815	156.3154	1199.7261	-253.1227	234.9964	1368.1738	46.639	201.5146	1282.3146	167.9448	158.2801	1323.9084	158.837	114.0487	1340.8652	317.0524	111.2551	1365.634	389.2149	108.2272	1313.827	386.4005	93.6885	1370.8696	473.8044	96.9887	1323.3856	473.2212	345.264	1105.6001	-417.389	263.8198	978.2607	-407.38	285.881	975.032	-458.9344	345.4964	827.3323	-472.8211	388.286	757.8003	-445.4843	349.5721	751.0507	-466.4043	404.1146	680.4371	-452.8649	360.7196	676.1812	-469.9419	342.932	906.206	-62.871	159.0439	929.2274	-155.4729	357.2917	889.8287	-324.0496	165.2642	922.922	-258.8325	259.4187	971.9838	-41.5892	270.5313	937.1062	-366.9857	113.8281	1331.6289	-208.598	98.3544	1235.8508	-176.8983	129.6508	1367.4751	-69.6483
57	0.28	215.6096	1376.8497	-262.8819	342.4107	1308.9728	-233.2519	173.2166	1363.8817	-137.0049	199.7063	1387.48	-101.937	224.7295	1407.2443	-133.948	241.852	1313.7413	-409.6427	279.6622	1301.1378	-441.0189	306.8073	1335.6682	-410.8575	378.0609	1113.0587	-199.777	156.2865	1199.7174	-253.1054	235.0484	1368.1416	46.6602	201.4412	1282.3174	167.9963	158.291	1323.9297	158.8463	114.0352	1340.8562	317.0611	111.2648	1365.6248	389.2401	108.1811	1313.805	386.413	93.7142	1370.8176	473.8071	96.9571	1323.333	473.2217	345.2085	1105.7648	-417.4636	263.8042	978.2608	-407.3801	285.8594	975.0563	-458.9486	345.4752	827.3691	-472.8413	388.2643	757.8074	-445.5208	349.5198	751.1265	-466.5477	404.0899	680.41	-452.8436	360.7055	676.2151	-469.9929	342.9232	906.2139	-62.8389	159.0041	929.2148	-155.4494	357.2734	889.8323	-324.0629	165.2517	922.9242	-258.8323	259.402	971.9824	-41.5718	270.4076	937.1813	-366.9529	113.8161	1331.6029	-208.5411	98.3833	1235.8362	-176.9343	129.6427	1367.4168	-69.595
58	0.285	215.5967	1376.8508	-262.871	342.3941	1308.9939	-233.2371	173.2378	1363.8855	-136.9942	199.7441	1387.4824	-101.8857	224.7999	1407.2278	-133.9074	241.8399	1313.8082	-409.663	281.5706	1300.7391	-440.078	306.7198	1335.6752	-410.5853	378.0731	1113.0505	-199.8569	156.284	1199.7087	-253.0835	235.026	1368.1779	46.6662	201.3994	1282.319	167.9694	158.2725	1323.947	158.8586	114.027	1340.8591	317.0473	111.2575	1365.6237	389.2489	108.1529	1313.7965	386.3941	93.7035	1370.7921	473.8374	96.9138	1323.2955	473.2116	345.2199	1105.7251	-417.5046	263.7791	978.2809	-407.4067	285.8398	975.0752	-458.9563	345.3966	827.4098	-472.8855	388.2234	757.8237	-445.4079	349.589	750.8926	-466.1285	404.0189	680.5615	-452.9288	360.6537	676.2407	-470.0349	343.0627	906.4462	-62.6258	158.9967	929.2277	-155.4404	357.2595	889.8594	-324.0512	165.2227	922.9208	-258.7959	259.3783	972.0134	-41.5626	270.3814	937.1954	-366.9707	113.8156	1331.5845	-208.5111	98.3763	1235.8471	-176.8257	129.6363	1367.3931	-69.5753
